<svg width="31" height="31" viewBox="0 0 31 31" fill="none" xmlns="http://www.w3.org/2000/svg">
<g clip-path="url(#clip0_602_2)">
<path d="M15.5 0C6.94013 0 0 6.94013 0 15.5C0 24.0599 6.94013 31 15.5 31C24.0599 31 31 24.0599 31 15.5C31 6.94013 24.0599 0 15.5 0ZM23.1131 10.6188L20.5685 22.6055C20.3812 23.4554 19.8749 23.662 19.1683 23.2616L15.2933 20.407L13.4256 22.2076C13.2447 22.4401 12.9645 22.5887 12.6506 22.5887C12.648 22.5887 12.6467 22.5887 12.6441 22.5887L12.9192 18.6439L20.1009 12.1572C20.4109 11.882 20.0312 11.7258 19.6191 12.0009L10.7467 17.5886L6.92333 16.3951C6.09667 16.1329 6.07342 15.5685 7.09771 15.1629L22.0371 9.40462C22.732 9.15146 23.3365 9.56996 23.1118 10.6201L23.1131 10.6188Z" fill="#0088CC"/>
</g>
<defs>
<clipPath id="clip0_602_2">
<rect width="31" height="31" fill="white"/>
</clipPath>
</defs>
</svg>
