<svg width="8" height="20" viewBox="0 0 8 20" fill="none" xmlns="http://www.w3.org/2000/svg">
<path d="M7.41108 15.0269C7.48658 14.8948 7.47488 14.7769 7.37598 14.6731C7.2767 14.5692 7.161 14.5551 7.02889 14.6306L4.62245 16.0037L4.62245 0.805357C4.62245 0.644928 4.56809 0.510544 4.45938 0.402207C4.35104 0.293493 4.21666 0.239136 4.05623 0.239136C3.8958 0.239136 3.76123 0.293493 3.65251 0.402207C3.54418 0.510544 3.49001 0.644928 3.49001 0.805357L3.49 16.0037L1.08357 14.6306C0.951448 14.5551 0.83575 14.5692 0.736472 14.6731C0.637572 14.7769 0.62587 14.8948 0.701367 15.0269L3.57494 19.5426C3.68818 19.7219 3.84861 19.8115 4.05623 19.8115C4.26384 19.8115 4.42427 19.7219 4.53751 19.5426L7.41108 15.0269Z" fill="black"/>
</svg>
