<svg width="46" height="46" viewBox="0 0 46 46" fill="none" xmlns="http://www.w3.org/2000/svg">
<path fill-rule="evenodd" clip-rule="evenodd" d="M34.5457 3.08465C38.0694 5.14133 40.8593 7.93123 42.9161 11.4549C44.9719 14.9785 46 18.8271 45.9999 23.0001C45.9999 27.1726 44.9719 31.021 42.9157 34.545C40.8591 38.0687 38.0693 40.8593 34.5456 42.9155C31.0216 44.9719 27.173 46.0001 23.0003 46.0001C18.8275 46.0001 14.9793 44.9719 11.4552 42.9155C7.93123 40.8586 5.14133 38.0687 3.08465 34.545C1.02839 31.0207 0 27.1728 0 23.0001C0 18.8275 1.02808 14.979 3.08497 11.4549C5.14175 7.93092 7.93165 5.14102 11.4556 3.08465C14.9793 1.02808 18.8278 0 23.0007 0C27.1739 0 31.0213 1.02808 34.5457 3.08465ZM38 23.2768L34.2001 27.0775L22.9996 15.8787L11.8007 27.0775L8 23.2768L22.9996 8.27719L38 23.2768ZM28.8859 36.4335L32.6866 32.6327L22.9996 22.9448L13.3133 32.6327L17.114 36.4335L22.9996 30.5471L28.8859 36.4335Z" fill="#D2670A"/>
</svg>
